<svg width="150" height="37" viewBox="0 0 150 37" fill="none" xmlns="http://www.w3.org/2000/svg">
<g clip-path="url(#clip0_111_997)">
<path d="M9.72835 4.80874L8.84937 5.28558L11.2519 9.71433L12.1309 9.23749L9.72835 4.80874Z" fill="#FD9636"/>
<path d="M10.5871 2.19748C10.8228 2.6321 10.9244 3.12688 10.879 3.61924C10.8336 4.1116 10.6432 4.57944 10.3319 4.96359C10.0206 5.34774 9.60234 5.63095 9.13007 5.7774C8.6578 5.92386 8.15272 5.92698 7.67867 5.78638C7.20463 5.64577 6.78293 5.36776 6.4669 4.98749C6.15086 4.60722 5.95469 4.14177 5.90318 3.65001C5.85167 3.15825 5.94715 2.66225 6.17753 2.22475C6.40791 1.78725 6.76286 1.42789 7.19747 1.19211C7.78107 0.879883 8.46423 0.81033 9.09878 0.99854C9.73332 1.18675 10.2681 1.61755 10.5871 2.19748Z" fill="#36BEF9"/>
<path d="M26.1603 4.80874L27.0393 5.28558L24.6368 9.71433L23.7578 9.23749L26.1603 4.80874Z" fill="#FD9636"/>
<path d="M25.3016 2.19748C25.0658 2.6321 24.9642 3.12688 25.0097 3.61924C25.0551 4.1116 25.2455 4.57944 25.5568 4.96359C25.8681 5.34774 26.2863 5.63095 26.7586 5.7774C27.2309 5.92386 27.736 5.92698 28.21 5.78638C28.684 5.64577 29.1057 5.36776 29.4218 4.98749C29.7378 4.60722 29.934 4.14177 29.9855 3.65001C30.037 3.15825 29.9415 2.66225 29.7111 2.22475C29.4808 1.78725 29.1258 1.42789 28.6912 1.19211C28.1076 0.879883 27.4244 0.81033 26.7899 0.99854C26.1553 1.18675 25.6206 1.61755 25.3016 2.19748Z" fill="#36BEF9"/>
<path d="M24.32 31.04H12.52C12.1169 31.04 11.7303 30.8799 11.4452 30.5948C11.1601 30.3097 11 29.9231 11 29.52C11 29.1169 11.1601 28.7303 11.4452 28.4452C11.7303 28.1601 12.1169 28 12.52 28H24.32C24.7231 28 25.1097 28.1601 25.3948 28.4452C25.6799 28.7303 25.84 29.1169 25.84 29.52C25.84 29.9231 25.6799 30.3097 25.3948 30.5948C25.1097 30.8799 24.7231 31.04 24.32 31.04Z" fill="#FD9636"/>
<path d="M3.04 23.76C4.71895 23.76 6.08 22.399 6.08 20.72C6.08 19.0411 4.71895 17.68 3.04 17.68C1.36105 17.68 0 19.0411 0 20.72C0 22.399 1.36105 23.76 3.04 23.76Z" fill="#36BEF9"/>
<path d="M33.78 23.56C35.4589 23.56 36.82 22.199 36.82 20.52C36.82 18.8411 35.4589 17.48 33.78 17.48C32.101 17.48 30.74 18.8411 30.74 20.52C30.74 22.199 32.101 23.56 33.78 23.56Z" fill="#36BEF9"/>
<path d="M18.7899 7.00001C18.7899 7.00001 31.1699 6.85001 33.1299 17.57C35.0899 28.29 24.6199 28.45 21.6099 28.66C20.2399 28.75 17.3199 28.76 14.7499 28.71C8.99992 28.61 4.99992 27.51 3.62992 22.21C3.46931 21.5911 3.36884 20.9582 3.32992 20.32C2.99992 14.51 6.88993 6.67001 18.7899 7.00001Z" fill="#36BEF9"/>
<path d="M9.81007 23.29L27.8101 23.57C28.2579 23.5766 28.7026 23.495 29.1189 23.3297C29.5351 23.1644 29.9148 22.9187 30.2361 22.6067C30.5574 22.2947 30.814 21.9224 30.9915 21.5112C31.1689 21.1 31.2636 20.6578 31.2701 20.21C31.278 19.7614 31.1973 19.3155 31.0326 18.8981C30.868 18.4807 30.6225 18.0999 30.3104 17.7776C29.9982 17.4552 29.6255 17.1976 29.2136 17.0196C28.8017 16.8415 28.3587 16.7465 27.9101 16.74L9.91007 16.46C9.0047 16.4466 8.13099 16.7928 7.4805 17.4227C6.83001 18.0526 6.45585 18.9147 6.44007 19.82C6.43345 20.2691 6.51538 20.7152 6.68117 21.1327C6.84695 21.5501 7.09336 21.9308 7.4063 22.2531C7.71924 22.5753 8.0926 22.8327 8.50504 23.0106C8.91748 23.1886 9.36093 23.2835 9.81007 23.29Z" fill="#FD9636"/>
<path d="M24.0601 19.84C24.1362 20.1054 24.3095 20.3324 24.5453 20.476C24.7811 20.6196 25.0623 20.6693 25.3331 20.6151C25.6038 20.561 25.8443 20.407 26.0068 20.1837C26.1692 19.9605 26.2418 19.6843 26.2101 19.41C26.1825 19.2695 26.1276 19.1357 26.0483 19.0164C25.9691 18.8971 25.8671 18.7946 25.7483 18.7148C25.6294 18.6349 25.496 18.5792 25.3556 18.551C25.2152 18.5227 25.0706 18.5224 24.9301 18.55C24.7882 18.5776 24.6532 18.6328 24.5327 18.7125C24.4122 18.7923 24.3086 18.895 24.2278 19.0148C24.147 19.1346 24.0906 19.2691 24.0618 19.4107C24.0331 19.5523 24.0325 19.6982 24.0601 19.84Z" fill="#425A8B"/>
<path d="M11.5001 19.63C11.5403 19.8447 11.6434 20.0425 11.7964 20.1983C11.9494 20.3541 12.1454 20.4608 12.3592 20.5049C12.5731 20.549 12.7953 20.5284 12.9974 20.4458C13.1996 20.3632 13.3725 20.2223 13.4943 20.041C13.6161 19.8597 13.6812 19.6463 13.6813 19.428C13.6814 19.2096 13.6164 18.9961 13.4948 18.8148C13.3731 18.6334 13.2003 18.4924 12.9982 18.4096C12.7961 18.3269 12.574 18.3061 12.3601 18.35C12.2189 18.3763 12.0844 18.4305 11.9644 18.5094C11.8444 18.5883 11.7414 18.6903 11.6613 18.8095C11.5813 18.9286 11.5257 19.0626 11.4981 19.2035C11.4704 19.3444 11.471 19.4894 11.5001 19.63Z" fill="#425A8B"/>
<path d="M21.0482 19.5723C21.0482 19.5723 21.1184 19.661 21.1275 19.8433C21.1387 20.1008 21.0883 20.3572 20.9805 20.5913C20.8264 20.9552 20.5816 21.2734 20.2694 21.5156C19.8811 21.8121 19.4063 21.9728 18.9178 21.9732C18.4281 21.9535 17.9597 21.7679 17.5895 21.4468C17.2906 21.1984 17.0609 20.877 16.9224 20.5139C16.8264 20.2768 16.7871 20.0206 16.8077 19.7657C16.8296 19.577 16.84 19.4876 16.8996 19.4945C16.9592 19.5014 16.9552 19.8835 17.2301 20.3784C17.3853 20.6635 17.6004 20.9116 17.8606 21.1057C18.1648 21.3445 18.5359 21.4825 18.9222 21.5005C19.2961 21.4867 19.6585 21.3682 19.9685 21.1586C20.2418 20.9768 20.4696 20.7345 20.6344 20.4506C20.9735 19.9563 20.9775 19.5742 21.0482 19.5723Z" fill="#425A8B"/>
<path d="M33.1 17.18C33.1419 17.2631 33.1754 17.3502 33.2 17.44C33.2 17.53 33.26 17.64 33.29 17.76C33.335 17.9011 33.3717 18.0447 33.4 18.19C33.472 18.5634 33.5221 18.9408 33.55 19.32C33.5848 19.786 33.5848 20.254 33.55 20.72C33.5043 21.1846 33.4275 21.6457 33.32 22.1C33.2402 22.4707 33.1333 22.835 33 23.19C32.95 23.34 32.88 23.47 32.83 23.59L32.68 23.89L32.54 24.13C32.5642 24.0386 32.6013 23.9511 32.65 23.87C32.65 23.79 32.73 23.69 32.78 23.57C32.83 23.45 32.89 23.32 32.94 23.16C33.07 22.8064 33.1802 22.4459 33.27 22.08C33.3767 21.6289 33.4535 21.1712 33.5 20.71C33.5296 20.2505 33.5296 19.7895 33.5 19.33C33.475 18.951 33.4283 18.5737 33.36 18.2C33.3379 18.0551 33.3079 17.9116 33.27 17.77C33.2517 17.6614 33.2249 17.5545 33.19 17.45C33.12 17.28 33.1 17.18 33.1 17.18Z" fill="#FFB800"/>
<path d="M3.7701 17.25C3.73273 17.334 3.70262 17.4209 3.6801 17.51C3.64105 17.6148 3.60767 17.7216 3.5801 17.83C3.5801 17.95 3.5101 18.09 3.4801 18.26C3.40365 18.633 3.35022 19.0104 3.3201 19.39C3.28555 19.856 3.28555 20.324 3.3201 20.79C3.36174 21.2552 3.43863 21.7165 3.5501 22.17C3.64592 22.5364 3.76278 22.897 3.9001 23.25C3.9601 23.41 4.0301 23.54 4.0801 23.66C4.1239 23.7598 4.174 23.8566 4.2301 23.95C4.26718 24.0384 4.31415 24.1222 4.3701 24.2C4.348 24.1079 4.31083 24.02 4.2601 23.94L4.1301 23.63C4.0801 23.51 4.0201 23.38 3.9701 23.23C3.83646 22.8767 3.72294 22.5161 3.6301 22.15C3.53181 21.6977 3.45837 21.2404 3.4101 20.78C3.3805 20.3172 3.3805 19.8529 3.4101 19.39C3.43564 19.0143 3.48238 18.6404 3.5501 18.27C3.5501 18.11 3.6101 17.97 3.6301 17.84L3.7101 17.52C3.74374 17.4336 3.76397 17.3425 3.7701 17.25Z" fill="#FFB800"/>
</g>
<text x="85" y="27" font-family="Arial, sans-serif" font-size="20" fill="#425A8B" font-weight="bold" text-anchor="middle">
  Eventura
</text>
</svg>
