<?xml version="1.0" standalone="no"?>
<!DOCTYPE svg PUBLIC "-//W3C//DTD SVG 20010904//EN"
 "http://www.w3.org/TR/2001/REC-SVG-20010904/DTD/svg10.dtd">
<svg version="1.0" xmlns="http://www.w3.org/2000/svg"
 width="500.000000pt" height="500.000000pt" viewBox="0 0 500.000000 500.000000"
 preserveAspectRatio="xMidYMid meet">

<g transform="translate(0.000000,500.000000) scale(0.100000,-0.100000)"
fill="#000000" stroke="none">
<path d="M1896 2728 c-8 -51 -2 -538 6 -538 5 0 74 -1 156 -1 l147 0 3 45 3
46 -105 0 -106 0 0 75 0 75 100 0 100 0 0 50 0 50 -100 0 -100 0 0 65 0 65
100 0 100 0 0 50 0 50 -150 0 -149 0 -5 -32z"/>
<path d="M3490 2650 c0 -49 -1 -50 -30 -50 -23 0 -30 -5 -30 -19 0 -35 12 -51
36 -51 24 0 24 0 24 -116 0 -194 27 -237 145 -232 l60 3 3 47 3 46 -36 -11
c-60 -18 -69 1 -74 143 l-3 120 56 0 56 0 0 34 0 35 -52 3 -53 3 -3 48 -3 47
-50 0 -49 0 0 -50z"/>
<path d="M610 2600 c-25 -25 -25 -32 -2 -60 25 -31 69 -21 78 17 5 20 2 31
-16 45 -28 23 -35 23 -60 -2z"/>
<path d="M1180 2602 c-18 -14 -21 -25 -16 -45 9 -38 53 -48 78 -17 23 28 23
35 -2 60 -25 25 -32 25 -60 2z"/>
<path d="M2724 2591 c-85 -52 -118 -179 -75 -290 21 -56 33 -70 82 -100 61
-37 169 -25 227 26 28 26 28 39 -3 59 -22 15 -27 15 -48 1 -74 -48 -177 -12
-177 64 0 5 56 9 130 9 l130 0 0 43 c0 88 -38 160 -101 192 -40 21 -127 19
-165 -4z m133 -83 c27 -30 44 -64 36 -72 -3 -3 -42 -6 -85 -6 -70 0 -78 2 -78
19 0 11 12 33 26 50 31 38 71 41 101 9z"/>
<path d="M3186 2585 c-34 -23 -36 -23 -36 -5 0 17 -7 20 -50 20 l-50 0 0 -204
0 -204 50 -4 50 -3 0 148 0 147 33 20 c39 24 80 26 101 4 13 -13 16 -42 16
-164 l0 -148 51 -4 51 -3 -4 178 -3 179 -37 34 c-32 29 -45 34 -86 34 -36 0
-59 -7 -86 -25z"/>
<path d="M4340 2599 c-14 -6 -35 -20 -47 -31 l-23 -21 0 26 c0 26 -2 27 -50
27 l-50 0 0 -205 0 -205 50 0 50 0 0 129 0 129 31 26 c20 17 42 26 65 26 l35
0 -3 52 c-3 57 -13 65 -58 47z"/>
<path d="M4504 2591 c-39 -24 -64 -58 -64 -88 0 -21 5 -23 48 -23 36 0 50 5
60 20 16 26 73 27 95 2 10 -10 17 -31 17 -47 l0 -28 -62 6 c-81 7 -126 -8
-155 -52 -26 -39 -29 -86 -9 -136 26 -62 118 -85 184 -45 39 24 40 24 44 4 2
-12 15 -17 46 -18 l42 -1 0 163 c0 187 -8 218 -66 245 -48 23 -140 22 -180 -2z
m156 -254 c0 -25 -6 -36 -29 -50 -54 -32 -111 -18 -111 27 0 37 29 56 87 56
l53 0 0 -33z"/>
<path d="M2240 2593 c0 -5 31 -98 69 -208 l68 -200 51 -3 c41 -2 53 1 60 15
11 20 116 333 126 376 6 27 6 27 -41 27 l-48 0 -44 -135 c-23 -74 -47 -135
-51 -135 -4 0 -15 24 -24 53 -20 63 -57 187 -62 205 -4 13 -104 18 -104 5z"/>
<path d="M3750 2440 c0 -181 9 -219 59 -244 41 -22 89 -20 136 4 48 24 55 25
55 3 0 -14 9 -18 43 -18 l42 0 3 208 2 207 -45 0 -44 0 -3 -142 -3 -142 -40
-23 c-49 -28 -60 -28 -85 -3 -18 18 -20 33 -20 165 l0 145 -50 0 -50 0 0 -160z"/>
<path d="M810 2570 c0 -22 30 -68 54 -84 65 -42 176 11 176 85 0 20 -17 7 -31
-23 -17 -41 -59 -62 -104 -54 -34 7 -75 46 -75 72 0 8 -4 14 -10 14 -5 0 -10
-5 -10 -10z"/>
</g>
</svg>
